<svg width="400" height="400" viewBox="0 0 400 400" fill="none" xmlns="http://www.w3.org/2000/svg">
<path fill-rule="evenodd" clip-rule="evenodd" d="M215.291 28C304.779 35.5006 375 110.63 375 202.198C375 298.737 296.879 377 200.504 377C104.122 377 26 298.737 26 202.198C26 112.281 93.756 38.2307 181.084 28.466C181.133 28.466 208.481 81.4037 201.733 133.416C201.733 133.416 213.68 120.378 212.71 96.8198C212.71 96.8198 221.344 112.755 223.657 124.171C223.657 124.171 225.405 114.759 225.207 112.831L232.748 131.727C233.13 135.603 235.451 106.63 232.168 89.0731C232.168 89.0731 227.977 57.8444 216.779 31.777L215.291 28Z" fill="black"/>
<path fill-rule="evenodd" clip-rule="evenodd" d="M181.13 370.555C181.13 370.555 204.122 372.619 215.619 370.555C215.619 370.555 193.642 326.28 196.336 279.666C196.336 279.666 198.023 242.856 209.489 216.513C209.489 216.513 230.725 169.899 231.069 148.626C231.069 148.626 229.382 136.124 226.687 133.081C226.687 133.081 224.313 142.531 222.634 144.229C222.634 144.229 219.405 126.382 216.054 118.774C216.054 118.774 209.13 136.728 200.657 145.568C200.657 145.568 194.031 175.665 178.214 209.96C178.214 209.96 161.779 252.635 164.306 294.531C164.306 294.531 166.756 336.505 178.847 366.983L181.13 370.555Z" fill="#FB0011"/>
<path d="M181.13 370.555C181.13 370.555 204.122 372.619 215.619 370.555C215.619 370.555 193.642 326.28 196.336 279.666C196.336 279.666 198.023 242.856 209.489 216.513C209.489 216.513 230.725 169.899 231.069 148.626C231.069 148.626 229.382 136.124 226.687 133.081C226.687 133.081 224.313 142.531 222.634 144.229C222.634 144.229 219.405 126.382 216.054 118.774C216.054 118.774 209.13 136.728 200.657 145.568C200.657 145.568 194.031 175.665 178.214 209.96C178.214 209.96 161.779 252.635 164.306 294.531C164.306 294.531 166.756 336.505 178.847 366.983L181.13 370.555Z" stroke="#FB0011" stroke-width="0.337904" stroke-miterlimit="3.8637"/>
</svg>
